# xmcd
#
# Track frame offsets: 
#        150
#        16310
#        28682
#        42952
#        66952
#        89283
#        112251
#        123740
#        140531
#        157959
#        179587
#        193299
#
# Disc length: 3043 seconds
#
# Revision: 0
# Processed by: cddbd v1.5.2PL0 Copyright (c) Steve Scherf et al.
# Submitted via: ExactAudioCopy v1.0b4
#
DISCID=b00be10c
DTITLE=Split Whiskers - Money Ain't Everything
DYEAR=2015
DGENRE=Blues
TTITLE0=Little Did She Know
TTITLE1=She Loves My Automobile
TTITLE2=Bee Sting
TTITLE3=The Spider and the Fly
TTITLE4=Money Ain't Everything
TTITLE5=I'll Play the Blues for You
TTITLE6=Never Made the Call
TTITLE7=Call Me the Breeze
TTITLE8=Big Brother
TTITLE9=Soul on Fire (feat. Sue Marchant)
TTITLE10=Waitin' on You (feat. Pete Towers)
TTITLE11=Catfish
EXTD=
EXTT0=
EXTT1=
EXTT2=
EXTT3=
EXTT4=
EXTT5=
EXTT6=
EXTT7=
EXTT8=
EXTT9=
EXTT10=
EXTT11=
PLAYORDER=
